<svg version="1.0" xmlns="http://www.w3.org/2000/svg" width="150" height="150" viewBox="0 0 363 513"><path d="M85 34.5V69h55V46h-32V23h32V0H85v34.5zM151 22.5V45h16c15.3 0 16 .1 16 2s-.7 2-16 2h-16v21h56V24h-16.6c-15.2 0-16.5-.1-16.2-1.8.3-1.5 2-1.7 16.6-2L207 20V0h-56v22.5zM218 22.5V45h16c15.3 0 16 .1 16 2s-.7 2-16 2h-16v21h55V24h-16c-15.3 0-16-.1-16-2s.7-2 16-2h16V0h-55v22.5zM.4 104.2c.3 1.8 7.8 85 16.7 184.8 8.8 99.8 16.5 181.7 16.9 182 .5.3 33.8 9.6 74.2 20.8l73.3 20.4 73.8-20.5c40.6-11.3 74-20.7 74.2-20.9.1-.1 7.5-82 16.4-181.8 8.9-99.8 16.4-183 16.7-184.8l.5-3.2H-.1l.5 3.2zM295 179.1c0 6.5-20.2 228.4-20.8 229-.4.3-21.4 6.3-46.7 13.3l-46 12.6-46.2-12.8c-25.5-7.1-46.5-13.1-46.8-13.4-.5-.5-6.5-64.5-6.5-69.3V336h22.5c17.2 0 22.7.3 23 1.2.2.7 1.1 8.9 1.9 18.1.8 9.3 1.6 17 1.8 17.2.2.2 11.5 3.3 25.2 7l24.9 6.7 25.1-6.7c13.8-3.8 25.2-6.9 25.2-6.9.1-.1 1.1-11.1 2.3-24.6 1.2-13.5 2.4-26.6 2.7-29.2l.6-4.8-78.8-.2-78.9-.3-1.7-18.5c-.9-10.2-1.7-20.4-1.7-22.8L76 268h82.5c45.4 0 82.5-.3 82.5-.8 0-.4.9-10.4 2-22.2 1.1-11.8 2-21.8 2-22.3 0-.4-39.1-.7-86.8-.7H71.4l-2-22.6c-1.1-12.4-1.7-22.7-1.5-23 .2-.2 51.4-.4 113.8-.4H295v3.1z"/></svg>